<svg xmlns="http://www.w3.org/2000/svg" width="600" height="280" viewBox="0 0 600 280"><g fill="#9b6060" stroke="#707070" stroke-width="1"><rect width="600" height="280" stroke="none"/><rect x="0.5" y="0.5" width="599" height="279" fill="none"/></g><g transform="translate(16 16)" fill="#b4b1b1" stroke="#707070" stroke-width="1"><rect width="128" height="256" stroke="none"/><rect x="0.5" y="0.5" width="127" height="255" fill="none"/></g><text transform="translate(75 54)" fill="#1e1e1e" font-size="9" font-family="SegoeUI, Segoe UI"><tspan x="-21.667" y="0">News Feed</tspan><tspan x="0" y="12"></tspan><tspan x="-21.68" y="24">Messenger</tspan><tspan x="0" y="36"></tspan><tspan x="-33.396" y="48">SC Chapel group</tspan><tspan x="0" y="60"></tspan><tspan x="-53.292" y="72">Winfield community group</tspan><tspan x="0" y="84"></tspan><tspan x="-14.311" y="96">Friends</tspan><tspan x="0" y="108"></tspan><tspan x="0" y="120"></tspan><tspan x="-15.99" y="132">Settings</tspan><tspan x="0" y="144"></tspan><tspan x="0" y="156"></tspan><tspan x="-15.346" y="168">Log out</tspan></text><g transform="translate(16)" fill="#1f75d5" stroke="#707070" stroke-width="1"><rect width="576" height="16" stroke="none"/><rect x="0.5" y="0.5" width="575" height="15" fill="none"/></g><g transform="translate(160 32)" fill="#fff" stroke="#707070" stroke-width="1"><rect width="224" height="64" stroke="none"/><rect x="0.5" y="0.5" width="223" height="63" fill="none"/></g><g transform="translate(160 112)" fill="#fff" stroke="#707070" stroke-width="1"><rect width="224" height="56" stroke="none"/><rect x="0.5" y="0.5" width="223" height="55" fill="none"/></g><g transform="translate(176 192)" fill="#ebebe6" stroke="#707070" stroke-width="1"><rect width="208" height="72" stroke="none"/><rect x="0.5" y="0.5" width="207" height="71" fill="none"/></g><g transform="translate(440 32)" fill="#fff" stroke="#707070" stroke-width="1"><rect width="144" height="112" stroke="none"/><rect x="0.5" y="0.5" width="143" height="111" fill="none"/></g><g transform="translate(432 168)" fill="#fff" stroke="#707070" stroke-width="1"><rect width="152" height="88" stroke="none"/><rect x="0.5" y="0.5" width="151" height="87" fill="none"/></g></svg>