<svg xmlns="http://www.w3.org/2000/svg" width="468" height="212" viewBox="0 0 468 212"><g fill="red" stroke="#707070" stroke-width="1"><rect width="468" height="212" stroke="none"/><rect x="0.5" y="0.5" width="467" height="211" fill="none"/></g><text transform="translate(16 49)" fill="#0c0c0c" font-size="20" font-family="SegoeUI, Segoe UI"><tspan x="0" y="0">Select type</tspan><tspan x="0" y="27"></tspan><tspan x="0" y="54"></tspan></text><g transform="translate(16 84)" fill="#a4a1a1" stroke="#707070" stroke-width="1"><ellipse cx="52" cy="20" rx="52" ry="20" stroke="none"/><ellipse cx="52" cy="20" rx="51.5" ry="19.5" fill="none"/></g><g transform="translate(122 84)" fill="#8f8f8f" stroke="#707070" stroke-width="1"><ellipse cx="52" cy="20" rx="52" ry="20" stroke="none"/><ellipse cx="52" cy="20" rx="51.5" ry="19.5" fill="none"/></g><g transform="translate(228 84)" fill="#8a8a8a" stroke="#707070" stroke-width="1"><ellipse cx="52" cy="20" rx="52" ry="20" stroke="none"/><ellipse cx="52" cy="20" rx="51.5" ry="19.5" fill="none"/></g><g transform="translate(332 84)" fill="#9a9999" stroke="#707070" stroke-width="1"><ellipse cx="52" cy="20" rx="52" ry="20" stroke="none"/><ellipse cx="52" cy="20" rx="51.5" ry="19.5" fill="none"/></g><text transform="translate(30 108)" fill="#0c0c0c" font-size="10" font-family="SegoeUI, Segoe UI"><tspan x="0" y="0" xml:space="preserve">Extra Soft                            Soft                              Medium                         Hard                              </tspan></text><g transform="translate(16 140)" fill="#2700eb" stroke="#707070" stroke-width="1"><rect width="428" height="32" rx="16" stroke="none"/><rect x="0.5" y="0.5" width="427" height="31" rx="15.5" fill="none"/></g><text transform="translate(224 165)" fill="#fff9f9" font-size="21" font-family="SegoeUI, Segoe UI"><tspan x="-64.764" y="0">ADD TO CART</tspan></text></svg>